<?xml version="1.0" encoding="UTF-8" standalone="no"?>
<svg
   xmlns:dc="http://purl.org/dc/elements/1.1/"
   xmlns:cc="http://creativecommons.org/ns#"
   xmlns:rdf="http://www.w3.org/1999/02/22-rdf-syntax-ns#"
   xmlns:svg="http://www.w3.org/2000/svg"
   xmlns="http://www.w3.org/2000/svg"
   xmlns:sodipodi="http://sodipodi.sourceforge.net/DTD/sodipodi-0.dtd"
   xmlns:inkscape="http://www.inkscape.org/namespaces/inkscape"
   version="1.1"
   width="917"
   height="319"
   viewBox="166.64 104.62 917 319"
   xml:space="preserve"
   id="svg48"
   sodipodi:docname="built.svg"><metadata
   id="metadata52"><rdf:RDF><cc:Work
       rdf:about=""><dc:format>image/svg+xml</dc:format><dc:type
         rdf:resource="http://purl.org/dc/dcmitype/StillImage" /></cc:Work></rdf:RDF></metadata><sodipodi:namedview
   pagecolor="#ffffff"
   bordercolor="#666666"
   borderopacity="1"
   objecttolerance="10"
   gridtolerance="10"
   guidetolerance="10"
   inkscape:pageopacity="0"
   inkscape:pageshadow="2"
   inkscape:window-width="640"
   inkscape:window-height="480"
   id="namedview50"
   fit-margin-top="49"
   fit-margin-left="49"
   fit-margin-right="49"
   fit-margin-bottom="49" />
<desc
   id="desc2">Created with Fabric.js 5.3.0</desc>
<defs
   id="defs4">
</defs>
<g
   transform="matrix(1.03,0,0,1.03,744.84,265.04)"
   id="base_text">
		<g
   aria-label="PhiBet.io"
   id="text10"
   style="font-style:normal;font-weight:normal;font-size:120px;font-family:f41363;white-space:pre;opacity:1;fill:#e5b80b;fill-rule:nonzero;stroke:none;stroke-width:1;stroke-linecap:butt;stroke-linejoin:miter;stroke-miterlimit:4;stroke-dasharray:none;stroke-dashoffset:0"><path
     d="m -278.88001,37.700001 v -86.28 h 70.68 q 4.32,0 7.92,2.16 3.6,2.16 5.64,5.76 2.16,3.48 2.16,7.68 v 24.2399998 q 0,4.32 -2.16,7.91999996 -2.04,3.48000004 -5.64,5.64000004 -3.6,2.04 -7.92,2.04 l -57.72,0.12 V 37.700001 Z m 15.96,-43.9200002 h 54.36 q 1.32,0 2.16,-0.84 0.84,-0.84 0.84,-2.04 V -32.619999 q 0,-1.2 -0.84,-2.04 -0.84,-0.96 -2.16,-0.96 h -54.36 q -1.2,0 -2.16,0.96 -0.84,0.84 -0.84,2.04 v 23.5199998 q 0,1.2 0.84,2.04 0.96,0.84 2.16,0.84 z"
     id="path54" /><path
     d="m -184.20019,37.700001 v 0 -92.4 h 12.96 v 22.8 h 42.24 q 4.2,0 7.68,2.16 3.6,2.16 5.76,5.64 2.16,3.48 2.16,7.8 v 54 h -12.96 v -53.64 q 0,-1.2 -0.96,-2.04 -0.84,-0.96 -2.04,-0.96 h -38.88 q -1.2,0 -2.16,0.96 -0.84,0.84 -0.84,2.04 v 53.64 z"
     id="path56" /><path
     d="m -103.92048,37.700001 v 0 -69.6 h 12.960003 v 69.6 z m 0,-79.44 v 0 -12.96 h 12.960003 v 12.96 z"
     id="path58" /><path
     d="m -77.160524,37.700001 v -86.4 h 67.1999997 q 4.2,0 7.8,2.16 3.6,2.04 5.64,5.64 2.16,3.48 2.16,7.8 v 17.64 q 0,1.56 -0.36,3.12 -0.24,1.56 -0.96,2.8799998 2.4,3.36 3.6,6.36 1.32,2.87999996 1.32,5.88 V 22.100001 q 0,4.32 -2.16,7.92 -2.04,3.48 -5.64,5.64 -3.6,2.04 -7.92,2.04 z m 15.96,-12.96 h 54.3599997 q 1.32,0 2.16,-0.84 0.84,-0.96 0.84,-2.16 V 3.1400008 q 0,-1.2 -0.84,-2.04 -0.84,-0.96000004 -2.16,-0.96000004 H -61.200524 q -1.2,0 -2.16,0.96000004 -0.84,0.84 -0.84,2.04 V 21.740001 q 0,1.2 0.84,2.16 0.96,0.84 2.16,0.84 z m 0,-37.56 h 50.88 q 1.1999997,0 2.0399997,-0.84 0.84,-0.96 0.84,-2.16 v -16.92 q 0,-1.2 -0.84,-2.04 -0.84,-0.96 -2.0399997,-0.96 h -50.88 q -1.2,0 -2.16,0.96 -0.84,0.84 -0.84,2.04 v 16.92 q 0,1.2 0.84,2.16 0.96,0.84 2.16,0.84 z"
     id="path60" /><path
     d="m 37.319335,37.700001 q -4.32,0 -7.8,-2.16 -3.48,-2.16 -5.64,-5.64 -2.16,-3.48 -2.16,-7.8 v -38.4 q 0,-4.32 2.16,-7.8 2.16,-3.48 5.64,-5.64 3.48,-2.16 7.8,-2.16 h 39.6 q 4.32,0 7.8,2.16 3.6,2.04 5.64,5.64 2.16,3.6 2.16,7.8 V 9.3800008 h -57.84 V 21.740001 q 0,1.2 0.84,2.16 0.96,0.84 2.16,0.84 h 54.84 v 12.96 z m -2.64,-40.4400002 h 44.76 V -15.939999 q 0,-1.2 -0.84,-2.04 -0.84,-0.96 -2.04,-0.96 h -38.88 q -1.2,0 -2.16,0.96 -0.84,0.84 -0.84,2.04 z"
     id="path62" /><path
     d="m 120.59925,37.700001 q -4.32,0 -7.92,-2.16 -3.48,-2.16 -5.64,-5.64 -2.04,-3.48 -2.04,-7.8 v -75.96 h 12.96 v 21.96 h 28.56 v 12.96 h -28.56 v 40.68 q 0,1.2 0.84,2.16 0.96,0.84 2.16,0.84 h 25.56 v 12.96 z"
     id="path64" /><path
     d="m 156.59914,37.700001 v 0 -12.96 h 12.96 v 12.96 z"
     id="path66" /><path
     d="m 182.87901,37.700001 v 0 -69.6 h 12.96 v 69.6 z m 0,-79.44 v 0 -12.96 h 12.96 v 12.96 z"
     id="path68" /><path
     d="m 224.27893,37.700001 q -4.32,0 -7.8,-2.16 -3.48,-2.16 -5.64,-5.64 -2.16,-3.48 -2.16,-7.8 v -38.4 q 0,-4.32 2.16,-7.8 2.16,-3.48 5.64,-5.64 3.48,-2.16 7.8,-2.16 h 39.6 q 4.32,0 7.8,2.16 3.6,2.04 5.64,5.64 2.16,3.6 2.16,7.8 v 38.4 q 0,4.32 -2.16,7.8 -2.04,3.48 -5.64,5.64 -3.48,2.16 -7.8,2.16 z m 0.36,-12.96 h 38.88 q 1.2,0 2.04,-0.84 0.84,-0.96 0.84,-2.16 v -37.68 q 0,-1.2 -0.84,-2.04 -0.84,-0.96 -2.04,-0.96 h -38.88 q -1.2,0 -2.16,0.96 -0.84,0.84 -0.84,2.04 v 37.68 q 0,1.2 0.84,2.16 0.96,0.84 2.16,0.84 z"
     id="path70" /></g>
</g><g
   transform="matrix(0.44,0,0,0.44,317.12,264.5)"
   id="main_icon">
<g
   id="g45">
		<g
   transform="matrix(0.63,0,0,0.63,35.18,72.24)"
   id="g15">
<path
   style="opacity:1;fill:#e5b80b;fill-rule:nonzero;stroke:none;stroke-width:1;stroke-linecap:butt;stroke-linejoin:miter;stroke-miterlimit:4;stroke-dasharray:none;stroke-dashoffset:0"
   transform="translate(-426.03,-512.72)"
   d="m 738.68,424.94 c -2.32,-33.15 -7.64,-49 -7.64,-49 -5.66,-23.32 -12.55,-39 -11.09,-53.79 0.67509,-5.53001 0.37043,-11.13572 -0.9,-16.56 -3.95,-16.56 -15.38,-27.18 -30.48,-34.14 -20.15,-9.29 -42.15,-10.25 -63.87,-13.28 7.48,2.69 15.11,5 22.39,8.16 8.67,3.74 17.55,7.38 25.39,12.51 8.81,5.79 8.25,11.79 -1.28,16.17 -6.74247,3.18518 -13.97391,5.21026 -21.39,5.99 -28.62,2.5 -53.83,-6.71 -75.85,-24.66 -12.51,-10.19 -24.26,-21.31 -36.69,-31.6 -14.49,-12 -30.89,-17.85 -50,-14.5 -14.33,2.5 -25.88,10 -36.76,19 -24.17,20.11 -48.13,40.48 -72.73,60.06 -21.84215,17.55536 -46.81728,30.80643 -73.6,39.05 -15.57227,4.7782 -30.62464,11.11004 -44.93,18.9 -37.77,20.62 -70.44,48.26 -102.25,77 -24,21.69 -37.55,48.54 -42.37,80.39 -3.72,24.6 -1.5,49 1.36,73.55 1.09303,-1.33591 1.87831,-2.89622 2.3,-4.57 2,-10.59 4.81,-21.15 5.45,-31.83 1.17,-19.73 8.44,-36 23.32,-49 3.51625,-3.05288 6.80498,-6.35832 9.84,-9.89 4.45,-5.24 6.27,-11.5 4.37,-18.19 -1.43,-5.06 0,-8.93 3.67,-12 5.11672,-4.50327 10.51063,-8.68146 16.15,-12.51 26.45,-17 55.35,-29.08 84.38,-40.74 76.18,-30.59 82.75,-49.89 186.4,-85.33 18.2,-6.23 33.19,-10.65 42.46,-13.28 0.41755,0.33543 0.86627,0.63011 1.34,0.88 40.2951,16.38044 75.45741,43.27191 101.82,77.87 23.12,30.09 34,63.78 29.06,101.85 -1.32,10.15 -3.56,20.18 -5.38,30.27 4.17,-11.32 8.29,-22.74 11,-34.48 8.34,-35.91 9.22,-72 1.52,-108.31 1.01237,1.32005 1.83066,2.77816 2.43,4.33 26.69,71.75 20,140.5 -20.53,205.18 -32.08,51.27 -76.89,89.24 -130.34,117 -49.04593,25.71541 -102.66985,41.53551 -157.82,46.56 -55.51,5.07 -109.62,-1.22 -161.83,-21.3 -10.6,-4.07 -20.94,-8.81 -32.26,-13.6 2.56,1.88 4.35,3.32 6.27,4.58 21.0439,13.75877 43.50637,25.21463 67,34.17 74.33,28.38 150.67,37.84 229.49,24 52.68,-9.27 101.66,-28.08 145.94,-58 62.65,-42.28 107.86,-99 134.75,-169.69 17.09,-44.86 25.15,-90.63 21.89,-137.22 z"
   stroke-linecap="round"
   id="path13" />
</g>
		<g
   transform="matrix(0.63,0,0,0.63,-1.31,99.28)"
   id="g19">
<path
   style="opacity:1;fill:#e5b80b;fill-rule:nonzero;stroke:none;stroke-width:1;stroke-linecap:butt;stroke-linejoin:miter;stroke-miterlimit:4;stroke-dasharray:none;stroke-dashoffset:0"
   transform="translate(-368.11,-555.65)"
   d="m 266.65,487.13 c -6.14,-3 -12.11,-6.32 -18.37,-9 -10.88,-4.59 -8.8,-6.92 -15.16,5 -24.27,45.49 -24.75,92.29 -2.83,138.28 28.36,59.49 90.88,91.28 157,82.16 70.13,-9.67 125.16,-65.23 133.77,-135.3 1.47518,-11.75751 0.89316,-23.68204 -1.72,-35.24 -4.27,6.79 -8.29,13.06 -12.15,19.43 -0.73627,1.29778 -1.13833,2.75825 -1.17,4.25 -0.26,13 -3.28,25.41 -7.81,37.45 -3.39,9 -7.51,17.74 -11.31,26.6 l -1.2,-0.49 c 4.01917,-16.68412 5.59893,-33.86269 4.69,-51 -0.29,-5 1.16,-8.68 3.81,-12.8 6.89,-10.75 13.12,-21.94 19.5,-33 1.48,-2.57 3.6,-4.7 2.52,-8.49 -6.42,-22.48 -17.06,-42.54 -33.16,-59.59 -9.14344,-9.80982 -20.1157,-17.73839 -32.3,-23.34 l 11.36,10.51 c -15.41,3.5 -29.78,6.58 -42.44,14.37 -3.51,2.16 -6.19,2.06 -9.62,0.32 -16.33042,-8.29553 -33.723,-14.3084 -51.69,-17.87 -3.5,-0.69 -7,-1.34 -10.66,-2 2.55,-14.66 6.11,-27.75 23.86,-29.88 -39.13,-8.5 -111.71,25.5 -126.26,58.4 10.59,4.77 21.16,9.58 31.8,14.23 1.13655,0.40688 2.3945,0.29351 3.44,-0.31 17.45,-12.4 36.4,-22 56,-30.48 3.61099,-1.73983 7.7704,-1.95248 11.54,-0.59 18.76,6.76 37.5,13.59 56.31,20.24 3.07263,0.89859 5.34138,3.50315 5.81,6.67 3.74,17.56 7.31,35.16 11.5,52.61 1.3,5.43 -0.86,8.15 -4.56,11.22 q -27.15,22.44 -53.9,45.25 c -2.38,2 -4.4,3 -7.54,2.31 -22.62,-4.65 -45.35,-8.85 -67.88,-13.92 -6,-1.36 -9.58,-0.23 -13,4.48 -10.37,14.42 -20.92,28.71 -31.32,42.93 -2.14,-2.36 -2.1,-5.42 -0.41,-9 6.74,-14.24 14.9,-27.54 25.41,-39.27 3.31,-3.71 3.92,-7.13 3,-11.66 -4.71,-22.56 -4.86,-45.28 -1.93,-68.05 0.36,-2.94 -0.58,-4.29 -2.93,-5.43 z m 101.64,112 c 18.93,-16.67 37.09,-32.5 55,-48.6 3,-2.73 5.42,-3.31 9.13,-1.75 13.64,5.73 27.37,11.24 41.13,16.67 2.66,1 3.94,2.28 3.88,5.35 -0.32531,23.6618 -5.03842,47.05782 -13.9,69 -0.71135,1.77175 -2.07494,3.20333 -3.81,4 -20.79,6.83 -42,11.28 -64,12.08 -3.77,0.14 -5.38,-1 -6.76,-4.65 -6.49,-16.9 -13.4,-33.64 -20.14,-50.45 -0.21539,-0.52313 -0.39252,-1.06122 -0.53,-1.61 z m 19,72.28 c 0.88565,-0.45589 1.87484,-0.67303 2.87,-0.63 17,0.19 33.86,-0.9 50.51,-4.56 -25.67,13.91 -52.8,22 -82.59,22.39 10.16,-5.93 19.68,-11.61 29.25,-17.16 z"
   stroke-linecap="round"
   id="path17" />
</g>
		<g
   transform="matrix(0.63,0,0,0.63,-114.83,59.35)"
   id="g23">
<path
   style="opacity:1;fill:#e5b80b;fill-rule:nonzero;stroke:none;stroke-width:1;stroke-linecap:butt;stroke-linejoin:miter;stroke-miterlimit:4;stroke-dasharray:none;stroke-dashoffset:0"
   transform="translate(-187.93,-492.27)"
   d="M 338.18,722.36 C 248.33,711.57 180.79,665.87 131.42,591.05 c -2.43,13.37 -10.56,23 -20.27,24.29 -0.62,-7.43 -1,-14.89 -1.9,-22.27 -2.46,-19.35 -4.41,-38.66 -2.61,-58.24 0.49,-5.32 -0.35,-10.93 -1.48,-16.21 -11.35,-53.06 -2.36,-102 30.41,-145.63 34.23,-45.6 81.27,-68.12 137.22,-72.56 17.48,-1.38 35.2,0.29 52.81,0.52 3.28,0 7.32,1 9.72,-0.47 13.59,-8.51 26.78,-17.64 40.56,-26.86 -1.42,-0.4 -2.31,-0.75 -3.24,-0.91 -23.92,-4 -47.76,-8.8 -71.81,-11.88 -38.51,-4.94 -76.31,-0.6 -112,14.79 -56.93,24.51 -94.11,67.57 -113.75,126 C 71,413.73 68.82,427.49 64.3,455 c -7.91,48.1 -6.72,69.67 -5.63,81 1.044425,10.89419 2.889411,21.69671 5.52,32.32 -29.85,-48.95 -42.67,-102 -36.42,-158.93 6.25,-56.93 30.65,-105.47 72.67,-144.9 -17.67,8.77 -32.89,20.68 -46.44,34.83 -22.88,23.92 -39.23,51.61 -47.31,83.8 -7.8,31.09 -8.41,62.66 -3.85,94.23 11.51,79.65 51.08,142.8 115.61,189.95 46,33.61 98.12,52.22 155,57.14 21.62,1.87 43.17,1.88 64.73,-2.08 z"
   stroke-linecap="round"
   id="path21" />
</g>
		<g
   transform="matrix(0.63,0,0,0.63,-50.78,-102.57)"
   id="g27">
<path
   style="opacity:1;fill:#e5b80b;fill-rule:nonzero;stroke:none;stroke-width:1;stroke-linecap:butt;stroke-linejoin:miter;stroke-miterlimit:4;stroke-dasharray:none;stroke-dashoffset:0"
   transform="translate(-289.57,-235.26)"
   d="m 472.08,182.73 c -19.35,0.35 -38.75,3.27 -57.94,6.24 -24,3.73 -48.05,6.21 -71.94,1.16 -21.58,-4.56 -42.95,-10.38 -64.13,-16.62 -47.88,-14.09 -95.18,-13.94 -141.81,4.68 -43,17.16 -75.33,46.86 -99.38,86 C 28.522926,277.45776 22.161593,291.88195 18,307 c 10.762179,-16.18179 23.564213,-30.90968 38.09,-43.82 36,-31.9 77.88,-49.68 126.12,-52.15 31.77,-1.62 62.15,5 92.19,14.46 26.48,8.35 52.84,17.38 80.88,19.31 23.18,1.6 45.64,-0.76 66.1,-12.76 8.89,-5.22 17.24,-11.34 25.93,-16.9 25.36,-16.23 52.72,-20.89 81.7,-12.66 11.35,3.23 22.15,8.39 32.14,12.26 -0.17,-0.14 -1.31,-1.22 -2.54,-2.19 -25.39,-20.06 -54.44,-30.4 -86.53,-29.82 z"
   stroke-linecap="round"
   id="path25" />
</g>
		<g
   transform="matrix(0.63,0,0,0.63,-53.53,-152.7)"
   id="g31">
<path
   style="opacity:1;fill:#e5b80b;fill-rule:nonzero;stroke:none;stroke-width:1;stroke-linecap:butt;stroke-linejoin:miter;stroke-miterlimit:4;stroke-dasharray:none;stroke-dashoffset:0"
   transform="translate(-285.23,-155.68)"
   d="m 16,251.47 c 6.34,-15 11.73,-30.46 19.26,-44.82 18.32,-35 43.25,-64.32 77.61,-84.65 49.71,-29.43 102.38,-38 157.65,-18.88 20.48,7.09 40,17.17 59.52,26.8 23.11,11.41 46.53,21.9 72.34,24.75 17.32,1.91 34.85,2.25 52.3,2.6 31.66,0.64 61.32,7.75 87.86,25.65 4.57,3.09 8.88,6.59 14.47,10.77 -1.89,-3.19 -3,-5.15 -4.21,-7.09 -7.85,-13 -14,-26.73 -17.61,-41.63 -4.42,-18.31 -1.22,-23.17 12.41,-30.82 10.63,-6 10.69,-14 0.5,-20.65 -4,-2.61 -5.37,-5.56 -3.9,-10 0.24549,-1.073333 0.37954,-2.16914 0.4,-3.27 l -1.33,-1 c -1.61105,1.199114 -3.1135,2.537605 -4.49,4 -13.85,17.02 -30.37,30.77 -50.78,39.22 -39.4,16.28 -78.47,12.51 -116.08,-5.1 -21.76,-10.2 -42.17,-23.3 -63,-35.4 -52,-30.19 -106.22,-34.18 -160.78,-9.66 -66.33,29.81 -109.31,81 -128.58,151.39 -2.78,10.16 -4.11,20.72 -6.11,31.09 l 1.24,0.3 c 0.41,-1.2 0.79,-2.42 1.31,-3.6 z"
   stroke-linecap="round"
   id="path29" />
</g>
		<g
   transform="matrix(0.63,0,0,0.63,58.58,42.02)"
   id="g35">
<path
   style="opacity:1;fill:#e5b80b;fill-rule:nonzero;stroke:none;stroke-width:1;stroke-linecap:butt;stroke-linejoin:miter;stroke-miterlimit:4;stroke-dasharray:none;stroke-dashoffset:0"
   transform="translate(-463.17,-464.76)"
   d="m 546.38,586.33 c 9.81,-12.5 16.45,-25.45 22.13,-38.92 17,-40.31 15.29,-79.81 -5.83,-118.17 -20.61,-37.43 -51.81,-64.13 -88.12,-85.42 -1.82107,-0.8403 -3.91893,-0.8403 -5.74,0 -26.54,14.77 -54.4,26.43 -83.09,36.29 -13.28,4.57 -26.28,9.9 -39.41,14.89 17.81103,-1.67493 35.75402,-1.33948 53.49,1 40,5.57 75.76,20.25 105,48.72 33.69,32.75 48.88,72.59 44.64,119.55 -0.6,7 -1.9,13.94 -3.07,22.06 z"
   stroke-linecap="round"
   id="path33" />
</g>
		<g
   transform="matrix(0.63,0,0,0.63,51.02,-216.2)"
   id="g39">
<path
   style="opacity:1;fill:#e5b80b;fill-rule:nonzero;stroke:none;stroke-width:1;stroke-linecap:butt;stroke-linejoin:miter;stroke-miterlimit:4;stroke-dasharray:none;stroke-dashoffset:0"
   transform="translate(-451.18,-54.88)"
   d="m 369,91.25 c 54.67,28.25 107,24 156.93,-11.67 4.36,-3.11 8.12,-7.06 11.19,-9.76 -3.07,-3.58 -6.21,-6 -7.59,-9.26 -0.94,-2.2 0.4,-5.5 1.07,-8.22 1.75,-7.21 1.73,-7.44 -5.53,-7.35 -15.45,0.19 -27.65,-5.05 -34.35,-19.91 -0.44868,-0.889075 -0.99181,-1.727242 -1.62,-2.5 C 477.69,7.18 461.67,1.12 443.25,0.11 c -42.84,-2.37 -84.53,34.58 -77.17,87.13 0.37064,1.685788 1.42939,3.139757 2.92,4.01 z"
   stroke-linecap="round"
   id="path37" />
</g>
		<g
   transform="matrix(0.63,0,0,0.63,160.63,-118.19)"
   id="g43">
<path
   style="opacity:1;fill:#e5b80b;fill-rule:nonzero;stroke:none;stroke-width:1;stroke-linecap:butt;stroke-linejoin:miter;stroke-miterlimit:4;stroke-dasharray:none;stroke-dashoffset:0"
   transform="translate(-625.16,-210.46)"
   d="m 585.89,209.82 c 10.51,16.81 25.92,26 45.64,28.7 17,2.3 33.94,5.4 50.58,8.1 -0.30389,-0.64334 -0.69416,-1.2422 -1.16,-1.78 -16.36,-17.21 -32,-35.23 -49.35,-51.34 -17.35,-16.11 -39.12,-21 -63.39,-18.64 0.8,2.67 1.09,4.87 2.07,6.69 5.08,9.5 9.91,19.16 15.61,28.27 z"
   stroke-linecap="round"
   id="path41" />
</g>
</g>
</g></svg>
